# This file uses centimeters as units for non-parametric coordinates.

v 0.000072 0.225000 0.000000
v 0.000054 0.168750 0.097427
v 0.000018 0.056250 0.097428
v 0.000000 0.000000 0.000000
v 0.000018 0.056250 -0.097428
v 0.000054 0.168750 -0.097427
v -0.378635 0.225000 0.000000
v -0.378635 0.168750 0.097427
v -0.378635 0.056250 0.097428
v -0.378635 0.000000 0.000000
v -0.378635 0.056250 -0.097428
v -0.378635 0.168750 -0.097427
v -1.133858 0.225000 0.000000
v -1.133858 0.168750 0.097427
v -1.133858 0.056250 0.097428
v -1.133858 0.000000 0.000000
v -1.133858 0.056250 -0.097428
v -1.133858 0.168750 -0.097427
v -0.378635 -0.050436 -0.000009
v -0.378635 -0.050436 0.164693
v -1.133858 -0.050436 0.164693
v -1.133858 -0.050436 0.000000
v -1.133858 -0.050436 -0.164693
v -0.378635 -0.050436 -0.164693
v -0.378635 0.255152 0.164694
v -0.378635 0.255154 0.000000
v -0.378635 0.255157 -0.164692
v -1.133858 0.255157 -0.164692
v -1.133858 0.255154 0.000000
v -1.133858 0.255152 0.164694
v -0.037835 0.247208 1.250000
v -0.662544 0.247208 1.250000
v -0.037835 0.297211 1.250000
v -0.662544 0.297211 1.250000
v -0.037834 0.247208 -1.250000
v -0.662544 0.247208 -1.250000
v -0.037834 0.297211 -1.250000
v -0.662544 0.297211 -1.250000
v -0.037293 0.247210 0.000000
v -1.360641 0.247210 0.000000
v -1.360641 0.297210 0.000000
v -0.037293 0.297210 0.000000
vt 0.078958 0.691853
vt 0.075202 0.748848
vt 0.060011 0.748340
vt 0.060011 0.684781
vt 0.095890 0.692969
vt 0.092134 0.749959
vt 0.112822 0.694085
vt 0.109066 0.751072
vt 0.024131 0.692969
vt 0.027887 0.749959
vt 0.010955 0.751072
vt 0.007199 0.694085
vt 0.041063 0.691853
vt 0.044819 0.748848
vt 0.422822 0.215844
vt 0.308041 0.215844
vt 0.308041 0.190813
vt 0.422822 0.190813
vt 0.422822 0.249584
vt 0.308041 0.249584
vt 0.308041 0.232486
vt 0.422822 0.232486
vt 0.422822 0.293783
vt 0.308041 0.293784
vt 0.308041 0.268752
vt 0.422822 0.268752
vt 0.240688 0.971998
vt 0.355469 0.971998
vt 0.355469 0.997027
vt 0.240688 0.997029
vt 0.240688 0.935731
vt 0.355469 0.935731
vt 0.355469 0.952830
vt 0.240688 0.952830
vt 0.308041 0.165783
vt 0.422822 0.165783
vt 0.453052 0.205621
vt 0.435954 0.205621
vt 0.427405 0.190813
vt 0.453053 0.176006
vt 0.461601 0.190814
vt 0.435954 0.176006
vt 0.096401 0.673952
vt 0.117052 0.687761
vt 0.469267 0.190814
vt 0.469267 0.215844
vt 0.469267 0.165783
vt 0.002971 0.687760
vt 0.023620 0.673952
vt 0.060011 0.679758
vt 0.088088 0.675303
vt 0.031934 0.675302
vt 0.240688 0.919089
vt 0.355469 0.919089
vt 0.060890 0.774652
vt 0.045699 0.775160
vt 0.037664 0.762258
vt 0.068046 0.761242
vt 0.541808 0.303174
vt 0.547475 0.296334
vt 0.625440 0.361442
vt 0.619773 0.368282
vt 0.831225 0.006841
vt 0.897922 0.083222
vt 0.891265 0.089081
vt 0.824568 0.012700
vt 0.635654 0.469208
vt 0.635874 0.379474
vt 0.815672 0.279639
vt 0.815205 0.469727
vt 0.994977 0.380356
vt 0.994757 0.470091
vt 0.802117 0.267363
vt 0.907435 0.096656
vt 0.675797 0.144414
vt 0.533871 0.285388
vt 0.663063 0.132558
vt 0.812786 0.000020
vn 0.610128 0.792303 0.000000
vn 0.838628 0.544705 -0.000000
vn 0.313178 0.072470 0.946926
vn 0.313178 0.072470 0.946926
vn 0.610059 0.396092 0.686250
vn 0.610128 0.792303 0.000000
vn 0.610059 0.396092 0.686250
vn 0.313178 0.072470 0.946926
vn 0.291540 -0.094645 0.951865
vn 0.291540 -0.094645 0.951865
vn 0.609928 -0.396315 0.686238
vn 0.610059 0.396092 0.686250
vn 0.609928 -0.396315 0.686238
vn 0.291540 -0.094645 0.951865
vn 0.838628 -0.544705 -0.000000
vn 0.838628 -0.544705 -0.000000
vn 0.609861 -0.792509 -0.000000
vn 0.609928 -0.396315 0.686238
vn 0.609861 -0.792509 -0.000000
vn 0.838628 -0.544705 -0.000000
vn 0.291540 -0.094645 -0.951865
vn 0.291540 -0.094645 -0.951865
vn 0.609928 -0.396314 -0.686239
vn 0.609861 -0.792509 -0.000000
vn 0.609928 -0.396314 -0.686239
vn 0.291540 -0.094645 -0.951865
vn 0.313170 0.072477 -0.946928
vn 0.313170 0.072477 -0.946928
vn 0.610059 0.396092 -0.686250
vn 0.609928 -0.396314 -0.686239
vn 0.610059 0.396092 -0.686250
vn 0.313170 0.072477 -0.946928
vn 0.838628 0.544705 -0.000000
vn 0.838628 0.544705 -0.000000
vn 0.610128 0.792303 0.000000
vn 0.610059 0.396092 -0.686250
vn -0.000000 1.000000 0.000016
vn -0.000000 1.000000 0.000016
vn -0.000000 1.000000 0.000016
vn -0.000000 1.000000 0.000016
vn -0.000000 1.000000 0.000016
vn -0.000000 1.000000 0.000016
vn 0.313178 0.072470 0.946926
vn -0.788011 -0.199940 0.582291
vn -0.775239 0.175336 0.606845
vn -0.775239 0.175336 0.606845
vn 0.291540 -0.094645 0.951865
vn 0.313178 0.072470 0.946926
vn 0.553396 -0.402336 0.729300
vn -0.553396 -0.402337 0.729299
vn -0.707107 -0.707107 -0.000001
vn -0.707107 -0.707107 -0.000001
vn 0.707107 -0.707107 -0.000001
vn 0.553396 -0.402336 0.729300
vn 0.707107 -0.707107 -0.000001
vn -0.707107 -0.707107 -0.000001
vn -0.553396 -0.402334 -0.729301
vn -0.553396 -0.402334 -0.729301
vn 0.553396 -0.402334 -0.729301
vn 0.707107 -0.707107 -0.000001
vn 0.291540 -0.094645 -0.951865
vn -0.775240 0.175338 -0.606845
vn -0.788005 -0.199932 -0.582302
vn -0.788005 -0.199932 -0.582302
vn 0.313170 0.072477 -0.946928
vn 0.291540 -0.094645 -0.951865
vn -0.000000 1.000000 0.000016
vn -0.000000 1.000000 0.000016
vn -0.000000 1.000000 0.000016
vn -0.000000 1.000000 0.000016
vn -0.000000 1.000000 0.000016
vn -0.000000 1.000000 0.000016
vn -0.775239 0.175336 0.606845
vn -0.788011 -0.199940 0.582291
vn -1.000000 0.000000 -0.000001
vn -1.000000 0.000000 0.000000
vn -0.775239 0.175336 0.606845
vn -1.000000 0.000000 -0.000001
vn -1.000000 0.000000 -0.000001
vn -0.775240 0.175338 -0.606845
vn -1.000000 0.000000 0.000000
vn -0.788005 -0.199932 -0.582302
vn -0.775240 0.175338 -0.606845
vn -1.000000 0.000000 -0.000001
vn 0.553396 -0.402336 0.729300
vn 0.707107 -0.707107 -0.000001
vn 0.838628 -0.544705 -0.000000
vn 0.838628 -0.544705 -0.000000
vn 0.291540 -0.094645 0.951865
vn 0.553396 -0.402336 0.729300
vn -0.553396 -0.402337 0.729299
vn 0.553396 -0.402336 0.729300
vn 0.291540 -0.094645 0.951865
vn 0.291540 -0.094645 0.951865
vn -0.775239 0.175336 0.606845
vn -0.553396 -0.402337 0.729299
vn -0.707107 -0.707107 -0.000001
vn -0.553396 -0.402337 0.729299
vn -0.775239 0.175336 0.606845
vn -0.775239 0.175336 0.606845
vn -1.000000 0.000000 0.000000
vn -0.707107 -0.707107 -0.000001
vn -0.553396 -0.402334 -0.729301
vn -0.707107 -0.707107 -0.000001
vn -1.000000 0.000000 0.000000
vn -1.000000 0.000000 0.000000
vn -0.775240 0.175338 -0.606845
vn -0.553396 -0.402334 -0.729301
vn 0.553396 -0.402334 -0.729301
vn -0.553396 -0.402334 -0.729301
vn -0.775240 0.175338 -0.606845
vn -0.775240 0.175338 -0.606845
vn 0.291540 -0.094645 -0.951865
vn 0.553396 -0.402334 -0.729301
vn 0.707107 -0.707107 -0.000001
vn 0.553396 -0.402334 -0.729301
vn 0.291540 -0.094645 -0.951865
vn 0.291540 -0.094645 -0.951865
vn 0.838628 -0.544705 -0.000000
vn 0.707107 -0.707107 -0.000001
vn 1.000000 -0.000000 -0.000000
vn 0.500993 -0.531654 0.682898
vn 0.313178 0.072470 0.946926
vn 0.313178 0.072470 0.946926
vn 0.838628 0.544705 -0.000000
vn 1.000000 -0.000000 -0.000000
vn 0.500995 -0.531628 -0.682917
vn 1.000000 -0.000000 -0.000000
vn 0.838628 0.544705 -0.000000
vn 0.838628 0.544705 -0.000000
vn 0.313170 0.072477 -0.946928
vn 0.500995 -0.531628 -0.682917
vn -0.500994 -0.531631 -0.682915
vn 0.500995 -0.531628 -0.682917
vn 0.313170 0.072477 -0.946928
vn 0.313170 0.072477 -0.946928
vn -0.788005 -0.199932 -0.582302
vn -0.500994 -0.531631 -0.682915
vn -1.000000 -0.000001 -0.000001
vn -0.500994 -0.531631 -0.682915
vn -0.788005 -0.199932 -0.582302
vn -0.788005 -0.199932 -0.582302
vn -1.000000 0.000000 -0.000001
vn -1.000000 -0.000001 -0.000001
vn -0.500992 -0.531655 0.682898
vn -1.000000 -0.000001 -0.000001
vn -1.000000 0.000000 -0.000001
vn -1.000000 0.000000 -0.000001
vn -0.788011 -0.199940 0.582291
vn -0.500992 -0.531655 0.682898
vn 0.500993 -0.531654 0.682898
vn -0.500992 -0.531655 0.682898
vn -0.788011 -0.199940 0.582291
vn -0.788011 -0.199940 0.582291
vn 0.313178 0.072470 0.946926
vn 0.500993 -0.531654 0.682898
vn 0.609928 -0.396314 -0.686239
vn 0.610128 0.792303 0.000000
vn 0.609928 -0.396315 0.686238
vn 0.609928 -0.396315 0.686238
vn 0.609861 -0.792509 -0.000000
vn 0.609928 -0.396314 -0.686239
vn 0.609928 -0.396314 -0.686239
vn 0.610059 0.396092 -0.686250
vn 0.610128 0.792303 0.000000
vn 0.610059 0.396092 0.686250
vn 0.609928 -0.396315 0.686238
vn 0.610128 0.792303 0.000000
vn -0.000000 -0.000000 1.000000
vn -0.000000 -0.000000 1.000000
vn -0.000000 -0.000000 1.000000
vn -0.000000 -0.000000 1.000000
vn -0.000000 -0.000000 1.000000
vn -0.000000 -0.000000 1.000000
vn 0.000000 0.000000 -1.000000
vn 0.000000 0.000000 -1.000000
vn 0.000000 0.000000 -1.000000
vn 0.000000 0.000000 -1.000000
vn 0.000000 0.000000 -1.000000
vn 0.000000 0.000000 -1.000000
vn -0.000000 -1.000000 0.000000
vn -0.000000 -1.000000 0.000000
vn -0.000000 -1.000000 0.000000
vn -0.000000 -1.000000 0.000000
vn -0.000000 -1.000000 0.000000
vn -0.000000 -1.000000 0.000000
vn -0.000000 -1.000000 0.000000
vn -0.000000 -1.000000 0.000000
vn -0.000000 -1.000000 0.000000
vn -0.000000 -1.000000 0.000000
vn -0.000000 -1.000000 0.000000
vn -0.000000 -1.000000 0.000000
vn -0.873071 -0.000000 0.487593
vn -0.873071 -0.000000 0.487593
vn -0.873071 -0.000000 0.487593
vn -0.873071 -0.000000 0.487593
vn -0.873071 -0.000000 0.487593
vn -0.873071 -0.000000 0.487593
vn -0.873071 -0.000005 -0.487593
vn -0.873071 -0.000005 -0.487593
vn -0.873071 -0.000000 -0.487593
vn -0.873071 -0.000000 -0.487593
vn -0.873071 0.000000 -0.487593
vn -0.873071 -0.000005 -0.487593
vn 0.000000 1.000000 -0.000000
vn 0.000000 1.000000 -0.000000
vn 0.000000 1.000000 -0.000000
vn 0.000000 1.000000 -0.000000
vn 0.000000 1.000000 -0.000000
vn 0.000000 1.000000 -0.000000
vn 0.000000 1.000000 -0.000000
vn 0.000000 1.000000 -0.000000
vn 0.000000 1.000000 -0.000000
vn 0.000000 1.000000 -0.000000
vn 0.000000 1.000000 -0.000000
vn 0.000000 1.000000 -0.000000
vn 1.000000 -0.000000 0.000000
vn 1.000000 -0.000000 0.000000
vn 1.000000 -0.000000 0.000434
vn 1.000000 -0.000000 0.000434
vn 1.000000 -0.000000 0.000434
vn 1.000000 -0.000000 0.000000
vn 1.000000 0.000000 -0.000433
vn 1.000000 0.000000 -0.000433
vn 1.000000 -0.000000 0.000000
vn 1.000000 -0.000000 0.000000
vn 1.000000 -0.000000 0.000000
vn 1.000000 0.000000 -0.000433
f 1/3/1 7/4/2 8/1/3
f 8/1/4 2/2/5 1/3/6
f 2/2/7 8/1/8 9/5/9
f 9/5/10 3/6/11 2/2/12
f 3/6/13 9/5/14 10/7/15
f 10/7/16 4/8/17 3/6/18
f 4/11/19 10/12/20 11/9/21
f 11/9/22 5/10/23 4/11/24
f 5/10/25 11/9/26 12/13/27
f 12/13/28 6/14/29 5/10/30
f 6/14/31 12/13/32 7/4/33
f 7/4/34 1/3/35 6/14/36
f 26/17/37 29/18/38 30/15/39
f 30/15/40 25/16/41 26/17/42
f 8/21/43 14/22/44 15/19/45
f 15/19/46 9/20/47 8/21/48
f 20/25/49 21/26/50 22/23/51
f 22/23/52 19/24/53 20/25/54
f 19/29/55 22/30/56 23/27/57
f 23/27/58 24/28/59 19/29/60
f 11/33/61 17/34/62 18/31/63
f 18/31/64 12/32/65 11/33/66
f 27/35/67 28/36/68 29/18/69
f 29/18/70 26/17/71 27/35/72
f 15/37/73 14/38/74 13/39/75
f 16/41/76 15/37/77 13/39/78
f 13/39/79 17/40/80 16/41/81
f 18/42/82 17/40/83 13/39/84
f 20/43/85 19/44/86 10/7/87
f 10/7/88 9/5/89 20/43/90
f 21/26/91 20/25/92 9/20/93
f 9/20/94 15/19/95 21/26/96
f 22/45/97 21/46/98 15/37/99
f 15/37/100 16/41/101 22/45/102
f 23/47/103 22/45/104 16/41/105
f 16/41/106 17/40/107 23/47/108
f 24/28/109 23/27/110 17/34/111
f 17/34/112 11/33/113 24/28/114
f 19/48/115 24/49/116 11/9/117
f 11/9/118 10/12/119 19/48/120
f 26/50/121 25/51/122 8/1/123
f 8/1/124 7/4/125 26/50/126
f 27/52/127 26/50/128 7/4/129
f 7/4/130 12/13/131 27/52/132
f 28/53/133 27/54/134 12/32/135
f 12/32/136 18/31/137 28/53/138
f 29/18/139 28/36/140 18/42/141
f 18/42/142 13/39/143 29/18/144
f 30/15/145 29/18/146 13/39/147
f 13/39/148 14/38/149 30/15/150
f 25/16/151 30/15/152 14/22/153
f 14/22/154 8/21/155 25/16/156
f 5/57/157 1/3/158 3/55/159
f 3/55/160 4/56/161 5/57/162
f 5/57/163 6/14/164 1/3/165
f 2/58/166 3/55/167 1/3/168
f 34/61/169 32/62/170 31/59/171
f 31/59/172 33/60/173 34/61/174
f 38/65/175 37/66/176 35/63/177
f 35/63/178 36/64/179 38/65/180
f 40/69/181 39/70/182 31/67/183
f 31/67/184 32/68/185 40/69/186
f 36/71/187 35/72/188 39/70/189
f 39/70/190 40/69/191 36/71/192
f 41/73/193 40/69/194 32/68/195
f 32/68/196 34/61/197 41/73/198
f 38/65/199 36/74/200 40/69/201
f 40/69/202 41/73/203 38/65/204
f 42/75/205 41/73/206 34/61/207
f 34/61/208 33/60/209 42/75/210
f 37/66/211 38/65/212 41/73/213
f 41/73/214 42/75/215 37/66/216
f 39/77/217 42/75/218 33/60/219
f 33/60/220 31/76/221 39/77/222
f 35/78/223 37/66/224 42/75/225
f 42/75/226 39/77/227 35/78/228
